<svg xmlns="http://www.w3.org/2000/svg" width="1024" height="1024" viewBox="0 0 1024 1024">
  <defs>
    <radialGradient id="bg" cx="50%" cy="43%" r="75%">
      <stop offset="0%" stop-color="#121917"/>
      <stop offset="58%" stop-color="#060708"/>
      <stop offset="100%" stop-color="#010202"/>
    </radialGradient>
    <linearGradient id="rim" x1="180" y1="170" x2="840" y2="850" gradientUnits="userSpaceOnUse">
      <stop offset="0%" stop-color="#46b8a5"/>
      <stop offset="55%" stop-color="#f1e6c8"/>
      <stop offset="100%" stop-color="#d9933d"/>
    </linearGradient>
    <filter id="softGlow" x="-18%" y="-18%" width="136%" height="136%">
      <feGaussianBlur stdDeviation="10" result="blur"/>
      <feColorMatrix in="blur" type="matrix" values="0 0 0 0 0.22 0 0 0 0 0.72 0 0 0 0 0.64 0 0 0 0.58 0"/>
      <feMerge>
        <feMergeNode/>
        <feMergeNode in="SourceGraphic"/>
      </feMerge>
    </filter>
    <clipPath id="plotClip">
      <rect x="166" y="194" width="692" height="636" rx="28"/>
    </clipPath>
  </defs>

  <rect width="1024" height="1024" rx="224" fill="url(#bg)"/>

  <g transform="rotate(-3 512 512)">
    <rect x="166" y="194" width="692" height="636" rx="28" fill="#020303" stroke="#1b403b" stroke-width="8"/>
    <g clip-path="url(#plotClip)" opacity=".34" stroke="#1e5a51" stroke-width="2">
      <path d="M248 194v636M330 194v636M412 194v636M494 194v636M576 194v636M658 194v636M740 194v636"/>
      <path d="M166 274h692M166 354h692M166 434h692M166 514h692M166 594h692M166 674h692M166 754h692"/>
    </g>

    <g clip-path="url(#plotClip)" filter="url(#softGlow)" fill="none" stroke-linecap="round" stroke-linejoin="round">
      <path d="M118 438 C232 360 315 413 360 505 C417 620 512 632 575 522 C642 406 719 337 904 382"
            stroke="#f7eed2" stroke-width="18"/>
      <path d="M142 706 C254 594 357 638 393 756 C434 887 554 838 595 694 C636 551 743 528 905 623"
            stroke="#efe4c6" stroke-width="15"/>
      <path d="M210 196 C348 332 448 315 518 200 C589 83 724 127 846 286"
            stroke="#5fc8b5" stroke-width="12" opacity=".88"/>
      <path d="M182 806 C308 742 356 604 306 474 C264 365 332 263 473 310 C613 356 582 506 714 508 C792 509 841 456 896 398"
            stroke="#d9933d" stroke-width="9" opacity=".72"/>
      <path d="M120 572 C245 543 312 510 355 427 C421 299 566 330 616 455 C670 589 730 657 908 647"
            stroke="#f8f1dd" stroke-width="7" opacity=".9"/>
    </g>

    <g clip-path="url(#plotClip)">
      <g fill="#f7eed2" opacity=".9">
        <circle cx="224" cy="446" r="4"/><circle cx="252" cy="430" r="3"/><circle cx="284" cy="426" r="3"/>
        <circle cx="324" cy="464" r="4"/><circle cx="365" cy="523" r="5"/><circle cx="418" cy="596" r="4"/>
        <circle cx="481" cy="624" r="3"/><circle cx="542" cy="574" r="5"/><circle cx="614" cy="468" r="4"/>
        <circle cx="694" cy="391" r="5"/><circle cx="776" cy="371" r="4"/><circle cx="838" cy="381" r="3"/>
        <circle cx="250" cy="671" r="4"/><circle cx="322" cy="641" r="3"/><circle cx="394" cy="756" r="5"/>
        <circle cx="502" cy="833" r="3"/><circle cx="590" cy="704" r="5"/><circle cx="694" cy="564" r="4"/>
        <circle cx="782" cy="572" r="3"/><circle cx="846" cy="610" r="4"/>
      </g>
      <g fill="#46b8a5" opacity=".7">
        <circle cx="287" cy="282" r="5"/><circle cx="364" cy="322" r="3"/><circle cx="520" cy="199" r="4"/>
        <circle cx="654" cy="171" r="3"/><circle cx="781" cy="228" r="5"/>
      </g>
      <g fill="#d9933d" opacity=".76">
        <circle cx="286" cy="759" r="3"/><circle cx="341" cy="641" r="4"/><circle cx="474" cy="322" r="3"/>
        <circle cx="616" cy="478" r="5"/><circle cx="738" cy="508" r="3"/><circle cx="840" cy="454" r="4"/>
      </g>
    </g>
  </g>

  <rect x="166" y="194" width="692" height="636" rx="28" transform="rotate(-3 512 512)"
        fill="none" stroke="url(#rim)" stroke-width="5" opacity=".8"/>
</svg>
